<svg xmlns="http://www.w3.org/2000/svg" viewBox="0 0 200 120" fill="#D32F2F">
  <!-- Main body -->
  <path d="M35 45 C30 42 25 38 25 32 C25 26 30 22 36 24 C42 26 44 32 42 38 C40 44 38 46 40 48 C42 50 48 48 55 45 C62 42 72 38 85 36 C98 34 115 34 130 38 C145 42 158 48 168 56 C178 64 185 74 188 82 C191 90 190 96 185 98 C180 100 174 96 170 90 C166 84 164 78 160 76 C156 74 150 76 145 80 C140 84 136 90 130 94 C124 98 116 100 108 100 C100 100 92 98 85 94 C78 90 72 84 68 80 C64 76 58 76 54 78 C50 80 48 84 44 88 C40 92 34 96 28 94 C22 92 20 86 22 78 C24 70 30 62 35 55 C40 48 42 46 35 45 Z"/>
  <!-- Front leg 1 -->
  <path d="M165 75 C168 82 172 92 170 102 C168 112 164 118 160 118 C156 118 156 112 158 102 C160 92 162 82 164 76"/>
  <!-- Front leg 2 -->
  <path d="M140 82 C142 90 144 100 142 108 C140 116 136 120 132 120 C128 120 128 114 130 106 C132 98 136 90 138 84"/>
  <!-- Back leg 1 -->
  <path d="M70 88 C68 94 66 102 68 110 C70 118 74 122 78 122 C82 122 82 116 80 108 C78 100 74 92 72 88"/>
  <!-- Back leg 2 -->
  <path d="M48 82 C46 88 44 96 46 106 C48 116 52 120 56 120 C60 120 60 114 58 104 C56 94 52 86 50 82"/>
  <!-- Ear 1 -->
  <path d="M30 32 C26 28 24 22 28 18 C32 14 38 16 40 22 C42 28 38 34 34 34"/>
  <!-- Ear 2 -->
  <path d="M42 26 C42 20 46 14 52 14 C58 14 60 20 58 26 C56 32 48 34 46 30"/>
  <!-- Eye -->
  <ellipse cx="52" cy="48" rx="3" ry="2" fill="white"/>
  <!-- Snout detail -->
  <path d="M35 55 C32 58 28 60 26 58" fill="none" stroke="white" stroke-width="1.5" stroke-linecap="round" opacity="0.6"/>
  <!-- Muscle definition lines -->
  <path d="M90 50 C100 46 115 44 130 48" fill="none" stroke="white" stroke-width="2" stroke-linecap="round" opacity="0.5"/>
  <path d="M75 60 C82 56 92 54 105 56" fill="none" stroke="white" stroke-width="1.5" stroke-linecap="round" opacity="0.4"/>
  <path d="M130 55 C142 52 155 54 165 60" fill="none" stroke="white" stroke-width="1.5" stroke-linecap="round" opacity="0.4"/>
  <!-- Shoulder hump -->
  <path d="M60 42 C70 36 85 34 100 36" fill="none" stroke="white" stroke-width="1.5" stroke-linecap="round" opacity="0.5"/>
</svg>
