<svg xmlns="http://www.w3.org/2000/svg" viewBox="0 0 200 120" fill="#2E7D32">
  <!-- Main body -->
  <path d="M45 85 C30 85 20 75 15 65 C10 55 12 50 18 48 C22 46 28 50 32 55 C36 60 38 62 40 60 C42 58 40 52 38 45 C36 38 38 32 45 30 C52 28 58 32 62 38 C66 44 68 52 72 58 C76 64 82 68 90 70 C98 72 110 72 125 70 C140 68 155 64 165 58 C175 52 182 44 186 38 C190 32 192 28 188 24 C184 20 176 22 172 28 C168 34 170 38 168 36 C166 34 162 26 166 18 C170 10 180 6 188 10 C196 14 200 24 198 36 C196 48 188 58 178 66 C168 74 155 80 140 84 C125 88 108 88 95 86 C82 84 72 80 65 85 C58 90 55 95 50 95 C45 95 42 92 45 85 Z"/>
  <!-- Front leg 1 -->
  <path d="M155 70 C158 78 160 88 158 98 C156 108 152 115 148 115 C144 115 144 108 146 98 C148 88 150 80 152 72"/>
  <!-- Front leg 2 -->
  <path d="M130 72 C132 80 134 90 132 100 C130 110 126 118 122 118 C118 118 118 110 120 100 C122 90 124 80 126 74"/>
  <!-- Back leg 1 -->
  <path d="M70 75 C68 82 66 92 68 102 C70 112 74 118 78 118 C82 118 82 112 80 102 C78 92 76 82 74 76"/>
  <!-- Back leg 2 -->
  <path d="M50 78 C48 85 46 94 48 104 C50 114 54 118 58 118 C62 118 62 112 60 102 C58 92 54 84 52 78"/>
  <!-- Tail -->
  <path d="M42 55 C35 50 25 48 18 52 C11 56 8 62 12 66 C16 70 22 68 28 64 C34 60 38 56 42 55" fill="none" stroke="#2E7D32" stroke-width="4" stroke-linecap="round"/>
  <!-- Horn 1 -->
  <path d="M185 30 C190 22 198 18 204 22 C210 26 208 34 202 38 C196 42 188 40 186 34"/>
  <!-- Horn 2 -->
  <path d="M178 26 C180 18 186 12 192 14 C198 16 198 24 194 30 C190 36 182 36 180 30"/>
  <!-- Eye area accent -->
  <ellipse cx="175" cy="42" rx="3" ry="2" fill="white"/>
  <!-- Muscle definition lines -->
  <path d="M100 65 C105 60 115 58 125 60" fill="none" stroke="white" stroke-width="2" stroke-linecap="round" opacity="0.6"/>
  <path d="M85 72 C88 68 92 66 98 68" fill="none" stroke="white" stroke-width="1.5" stroke-linecap="round" opacity="0.5"/>
  <path d="M140 62 C148 58 158 56 165 60" fill="none" stroke="white" stroke-width="1.5" stroke-linecap="round" opacity="0.5"/>
</svg>
